# xmcd
#
# Track frame offsets:
#	150
#	16542
#	30037
#	42555
#	53977
#	66795
#	80675
#	94602
#	111282
#	123950
#	136495
#	150112
#	164672
#
# Disc length: 2375 seconds
#
# Revision: 0
# Processed by: cddbd v1.5.2PL0 Copyright (c) Steve Scherf et al.
# Submitted via: EasyCDDAExtractor 16.0.6.1
#
DISCID=9a09450d
DTITLE=Συλλογικός δίσκος - Οι λαϊκές στράτες του Γιώργου Ζαμπέτα
DYEAR=1996
DGENRE=Λαϊκή
TTITLE0=Ζαμπέτας Γιώργος - Σ' αυτές τις στράτες [Γ. Ζαμπέτας-Αλέξ. Καγιάντας]
TTITLE1=Μητροπάνος Δημήτρης - Με το βοριά [Γ. Ζαμπέτας-Δ. Χριστοδούλου]
TTITLE2=Μοσχολιού Βίκυ - Παιδί της νύχτας [Γ. Ζαμπέτας-Ν. Μπακογιάννης]
TTITLE3=Άνευ ερμηνευτού - Τα δειλινά [Γ. Ζαμπέτας-Χ. Βασιλειάδης, μπ. Γ. Ζαμπέ
TTITLE3=τας]
TTITLE4=Βοσκόπουλος Τόλης - Έχασες το τραίνο [Γ. Ζαμπέτας-Διον. Τζεφρώνης]
TTITLE5=Δούκισσα - Η μοντέρνα η Αθήνα [Γ. Ζαμπέτας-Ναπ. Ελευθερίου]
TTITLE6=Αναγνωστάκης Πέτρος - Συχνά με το δείλι [Γ. Ζαμπέτας-Τάσος Μαστοράκης/
TTITLE6=Ν. Μουρκάκος]
TTITLE7=Άνευ ερμηνευτού - Σήκω χόρεψε συρτάκι [Γ. Ζαμπέτας-Α. Σακελλάριος, μπ.
TTITLE7=Γ. Ζαμπέτας]
TTITLE8=Τζανετής Πάνος - Μέσα στο γλυκοχάραμα [Γ. Ζαμπέτας-Χ. Βασιλειάδης]
TTITLE9=Μαρινέλλα - Τα πικραμένα δειλινά [Γ. Ζαμπέτας-Ναπ. Ελευθερίου]
TTITLE10=Άνευ ερμηνευτού - Μάτια μου μεγάλα(Τι γλυκό να σ' αγαπούν)[ΓΖαμπέτας-
TTITLE10=ΛΠαπαδόπουλου]
TTITLE11=Μοσχολιού Βίκυ - Πού ήσουν και χάθηκες (Όνειρο) [Γ. Ζαμπέτας-Αλέξ. Κα
TTITLE11=γιάντας]
TTITLE12=Μητροπάνος Δημήτρης - Ο ξενύχτης [Γ. Ζαμπέτας-Χ. Βασιλειάδης]
EXTD=
EXTT0=
EXTT1=
EXTT2=
EXTT3=
EXTT4=
EXTT5=
EXTT6=
EXTT7=
EXTT8=
EXTT9=
EXTT10=
EXTT11=
EXTT12=
PLAYORDER=
